<svg xmlns="http://www.w3.org/2000/svg" width="412" height="412" viewBox="0 0 412 412" fill="none"><g clip-path="url(#clip0_68_1741)"><path d="M412 206C412.025 228.526 408.35 250.903 401.121 272.237C400.707 273.456 400.282 274.671 399.847 275.882C392.192 297.052 381.122 316.827 367.076 334.421C362.883 339.681 358.44 344.723 353.747 349.548C349.054 354.381 344.128 358.978 338.967 363.34C310.185 387.749 275.22 403.736 237.93 409.538H237.924C233.17 410.275 228.369 410.85 223.522 411.263C217.75 411.75 211.91 411.996 206 412C178.517 412.036 151.307 406.555 125.982 395.882C100.656 385.208 77.7307 369.56 58.5637 349.865C57.2168 348.487 55.8902 347.09 54.5839 345.672C51.3293 342.143 48.1987 338.504 45.192 334.756C43.5038 332.647 41.8562 330.506 40.2492 328.332C30.3508 314.96 22.1154 300.433 15.7242 285.072C12.9987 278.53 10.6185 271.849 8.59347 265.057C8.4472 264.576 8.30701 264.094 8.16683 263.613C7.8621 262.577 7.56753 261.535 7.28312 260.486C2.43488 242.731 -0.0145937 224.406 -2.69648e-05 206C-2.69648e-05 92.2307 92.2307 0 206 0C319.769 0 412 92.2307 412 206Z" fill="#F2F2F2"></path><path d="M87.3659 123.132C87.047 125.068 87.1565 127.051 87.6868 128.941C88.217 130.83 89.1551 132.58 90.435 134.068C91.7149 135.556 93.3054 136.745 95.0944 137.551C96.8835 138.358 98.8277 138.762 100.79 138.736L133.673 234.418L154.655 219.998L114.151 124.167C113.889 120.873 112.427 117.79 110.044 115.502C107.66 113.214 104.52 111.88 101.218 111.752C97.9167 111.625 94.6829 112.713 92.1299 114.81C89.5768 116.907 87.8817 119.868 87.3659 123.132Z" fill="#A0616A"></path><path d="M258.996 155.506C244.394 172.12 208.386 201.399 178.723 221.56C172.312 225.917 166.193 229.842 160.653 233.127C156.911 235.346 153.431 237.266 150.298 238.832C148.195 239.879 145.899 240.481 143.553 240.6C141.207 240.719 138.862 240.352 136.664 239.522C134.467 238.693 132.464 237.418 130.782 235.779C129.1 234.139 127.774 232.17 126.888 229.995L106.349 180.305L113.456 175.594L130.978 163.971L134.958 161.338L151.389 200.472L168.716 186.564L179.473 177.928L228.511 138.575L232.741 137.319L242.608 146.949L249.586 153.763L256.15 154.902C257.131 155.073 258.082 155.274 258.996 155.506Z" fill="#FF6755"></path><path d="M390.01 292.034C391.028 293.326 392.083 294.612 393.137 295.904C389.505 303.362 385.422 310.591 380.911 317.552C380.576 317.315 380.241 317.077 379.905 316.839C379.852 316.81 379.802 316.778 379.753 316.742C378.504 315.852 377.248 314.974 375.999 314.084V314.078C374.968 310.571 374.392 306.945 374.286 303.291C374.931 303.143 375.514 302.8 375.957 302.31C376.4 301.819 376.682 301.204 376.764 300.548C376.846 299.892 376.724 299.227 376.415 298.643C376.106 298.058 375.624 297.583 375.036 297.281C374.871 296.995 374.755 296.788 374.591 296.495C374.597 296.422 374.609 296.343 374.615 296.27C375.572 288.657 385.275 286 390.01 292.034Z" fill="white"></path><path d="M400.95 265.949C401.682 267.96 402.348 269.993 402.949 272.049C402.535 273.268 402.11 274.483 401.676 275.694C401.511 275.054 401.34 274.414 401.164 273.774C400.172 270.216 398.982 266.716 397.598 263.291C396.465 260.482 395.209 257.731 393.832 255.039C386.342 240.416 375.489 227.778 362.164 218.166C356.657 216.893 351.673 213.962 347.884 209.768C346.517 208.261 345.374 206.566 344.489 204.734C345.05 204.654 345.611 204.545 346.159 204.429C346.33 204.392 346.507 204.35 346.677 204.313L346.744 204.301C347.344 204.162 347.891 203.853 348.319 203.41C348.747 202.968 349.038 202.411 349.157 201.807C349.276 201.203 349.218 200.578 348.99 200.006C348.762 199.434 348.374 198.94 347.872 198.584C347.561 198.359 347.244 198.139 346.933 197.92C346.458 197.572 345.976 197.243 345.495 196.902C345.444 196.87 345.395 196.836 345.349 196.798C344.8 196.408 344.252 196.031 343.709 195.634C344.13 194.276 344.858 193.033 345.836 192.002C349.243 188.485 355.326 188.565 359.299 191.429C363.279 194.294 365.278 199.309 365.534 204.197C365.76 208.384 364.858 212.529 363.669 216.57C363.968 216.789 364.279 216.996 364.577 217.222C370.064 221.288 375.139 225.883 379.729 230.941C377.077 224.651 376.115 216.448 376.803 210.798C377.589 204.362 380.716 198.249 383.276 192.16C386.341 184.847 396.8 184.749 399.75 192.112C399.78 192.185 399.811 192.252 399.835 192.325C399.341 192.819 398.866 193.331 398.409 193.861C397.835 194.529 397.476 195.355 397.38 196.23C397.283 197.106 397.453 197.99 397.867 198.767C398.281 199.544 398.921 200.178 399.701 200.586C400.482 200.994 401.368 201.157 402.242 201.053L402.334 201.04C402.714 203.213 402.93 205.411 402.98 207.616C403.056 213.786 401.856 219.905 399.456 225.589C397.057 231.273 393.509 236.401 389.035 240.65C388.743 240.924 388.456 241.192 388.158 241.454C390.981 245.469 393.517 249.679 395.746 254.052C397.724 257.906 399.462 261.879 400.95 265.949Z" fill="white"></path><path d="M283.515 208.773L281.675 335.183L132.989 330.916L156.734 278.502C156.563 276.82 167.156 265.015 167.095 263.266C166.912 258.14 170.739 253.392 171.361 248.029C172.629 236.967 165.37 195.194 168.716 186.564C170.141 182.71 171.968 179.017 174.165 175.545C176.066 172.668 178.017 170.73 179.882 170.029L185.379 157.218L190.255 149.905L228.511 138.575L232.741 137.319L242.608 146.949L249.586 153.763L256.15 154.902C257.131 155.073 258.082 155.274 258.996 155.506C263.399 156.521 267.503 158.554 270.979 161.442C282.437 171.175 283.771 189.483 283.515 208.773Z" fill="#FF6755"></path><path d="M368.905 334.233C364.711 339.493 360.268 344.535 355.576 349.36L339.498 349.372L253.033 349.47L237.467 349.488L227.118 349.5L211.723 349.513L199.881 349.525L178.007 349.549L165.105 349.567L137.935 349.592L124.965 349.61L89.0249 349.647L66.4502 349.671L60.3921 349.677C59.0452 348.3 57.7186 346.902 56.4123 345.484C53.1578 341.955 50.0271 338.317 47.0204 334.568L59.5633 334.556L68.108 334.55L87.8913 334.526L126.068 334.489L138.971 334.477L144.188 334.471H144.206L148.302 334.465L150.136 334.459L154.835 334.453H156.822L170.754 334.44L200.807 334.404L214.033 334.392L226.698 334.38L238.57 334.367L255.605 334.349L346.586 334.258L368.905 334.233Z" fill="#CCCCCC"></path><path d="M163.194 144.427L163.161 144.43C161.403 144.593 159.652 144.052 158.293 142.924C156.934 141.797 156.079 140.176 155.915 138.417L152.449 101.423C151.822 94.7957 152.533 88.1098 154.542 81.7631C158.478 69.3759 167.043 58.9856 178.451 52.7576C184.342 49.5502 190.821 47.5688 197.497 46.9327C224.814 44.3302 234.796 50.0194 251.67 91.6806C268.543 133.342 255.141 128.731 255.141 128.731C255.225 129.623 255.13 130.522 254.859 131.376C254.328 133.042 253.174 134.438 251.638 135.272C250.849 135.7 249.983 135.964 249.091 136.051C216.797 144.259 184.212 152.9 163.189 144.427L163.194 144.427Z" fill="#2F2E41"></path><path d="M223.301 81.9861C227.355 87.9839 229.54 95.0485 229.581 102.288C229.623 109.527 227.517 116.616 223.532 122.659C219.547 128.703 213.86 133.43 207.189 136.243C200.519 139.056 193.165 139.83 186.055 138.466C181.349 137.578 176.865 135.765 172.865 133.133C168.864 130.5 165.425 127.099 162.748 123.128C158.703 117.132 156.523 110.073 156.485 102.84C156.446 95.6076 158.549 88.5253 162.53 82.4864C166.511 76.4474 172.19 71.7223 178.853 68.9067C185.515 66.0911 192.862 65.3112 199.967 66.6651C204.677 67.5475 209.165 69.3562 213.17 71.9865C217.176 74.6167 220.62 78.0161 223.301 81.9874L223.301 81.9861Z" fill="#9E616A"></path><path d="M140.998 105.533C140.502 100.292 141.065 95.0039 142.653 89.9843C143.021 77.7052 146.584 66.5833 161.56 67.0502C166.19 64.5318 171.279 62.9703 176.524 62.4586L183.925 61.7278C184.008 61.7195 184.091 61.7115 184.174 61.7037C189.302 61.2265 194.473 61.7639 199.393 63.2852C204.312 64.8066 208.884 67.282 212.847 70.5702C216.811 73.8585 220.087 77.8951 222.49 82.4496C224.893 87.0042 226.376 91.9874 226.853 97.1149L226.922 97.8559L211.264 99.3866L204.526 84.9655L204.858 100.016L196.771 100.81L193.373 93.5339L193.539 101.122C181.531 111.697 163.323 112.252 141.074 106.275L140.998 105.533Z" fill="#2F2E41"></path><path d="M191.083 140.638C190.95 141.857 191.162 143.089 191.694 144.193C191.962 144.759 192.308 145.284 192.722 145.754C193.076 146.154 193.476 146.511 193.914 146.817C195.212 147.72 196.788 148.132 198.361 147.977C198.459 147.967 198.557 147.955 198.654 147.941C198.752 147.928 198.849 147.912 198.947 147.893C199.045 147.876 199.142 147.856 199.239 147.833C199.336 147.81 199.433 147.785 199.53 147.758L204.995 146.227L211.12 129.15L212.524 144.135L237.373 137.216L231.416 73.6275L189.061 77.8009L190.223 78.9194C194.082 82.676 196.831 87.4246 198.165 92.6425C199.49 97.9301 199.899 103.406 199.374 108.831C198.884 114.317 197.868 119.744 196.341 125.036C195.011 129.722 193.413 134.328 191.553 138.83C191.313 139.408 191.155 140.016 191.083 140.638Z" fill="#2F2E41"></path><path d="M196.731 341.124C196.003 341.124 195.284 340.961 194.626 340.649L77.2917 343.642C76.3913 343.216 75.6415 342.526 75.1412 341.664C74.641 340.803 74.4138 339.81 74.4897 338.816C74.5657 337.823 74.9411 336.876 75.5665 336.101C76.192 335.325 77.0379 334.757 77.9926 334.473L154.756 311.584C155.551 311.347 156.393 311.315 157.204 311.491L275.944 325.963C276.995 326.19 277.942 326.755 278.642 327.571C279.342 328.387 279.755 329.41 279.819 330.483C279.883 331.556 279.594 332.621 278.996 333.514C278.398 334.408 277.525 335.081 276.508 335.431L198.339 340.854C197.822 341.032 197.278 341.124 196.731 341.124Z" fill="#3F3D56"></path><path d="M201.047 332.956C200.517 332.957 199.996 332.821 199.533 332.563L104.24 337.014C103.699 336.711 103.262 336.252 102.986 335.696C102.709 335.141 102.607 334.515 102.691 333.9C102.776 333.285 103.043 332.71 103.459 332.25C103.875 331.789 104.42 331.465 105.023 331.319L139.521 322.945C140.059 322.815 140.622 322.832 141.152 322.993L229.741 322.887C230.371 323.08 230.924 323.47 231.317 323.999C231.71 324.529 231.923 325.17 231.926 325.83C231.928 326.489 231.719 327.132 231.33 327.665C230.94 328.197 230.391 328.591 229.761 328.788L201.968 332.816C201.67 332.909 201.359 332.957 201.047 332.956Z" fill="#2F2E41"></path><path d="M191.016 327.877C192.666 328.941 194.528 329.63 196.472 329.895C198.417 330.161 200.396 329.997 202.27 329.415C204.144 328.834 205.868 327.848 207.32 326.528C208.772 325.208 209.917 323.585 210.675 321.774L311.539 329.698L306.663 304.709L202.628 303.718C199.502 302.648 196.093 302.761 193.045 304.037C189.997 305.313 187.523 307.662 186.092 310.64C184.66 313.618 184.371 317.018 185.279 320.195C186.186 323.371 188.228 326.105 191.016 327.877Z" fill="#A0616A"></path><path d="M250.592 165.141C250.592 165.141 265.829 152.952 284.113 174.893C296.443 189.689 320.229 279.139 322.201 316.205C322.326 318.551 321.965 320.897 321.141 323.096C320.316 325.296 319.047 327.301 317.411 328.987C315.775 330.672 313.809 332.002 311.636 332.892C309.462 333.783 307.128 334.214 304.78 334.161L251.018 333.225L245.007 299.43L287.452 299.933L250.592 165.141Z" fill="#FF6755"></path><path d="M190.205 341.138C188.361 341.137 186.535 340.767 184.835 340.051L76.0809 342.532C73.2107 341.335 70.8281 339.205 69.3183 336.487C67.8086 333.768 67.2599 330.619 67.761 327.55L63.7199 232.04C64.2559 228.628 66.0515 225.542 68.7522 223.389C71.453 221.237 74.8625 220.176 78.3076 220.415L179.274 224.603C181.212 224.73 183.102 225.263 184.821 226.167C186.539 227.072 188.049 228.327 189.251 229.853C190.454 231.378 191.322 233.139 191.8 235.021C192.278 236.904 192.355 238.866 192.025 240.78L203.855 329.621C203.299 332.84 201.625 335.76 199.128 337.867C196.631 339.973 193.472 341.132 190.205 341.138Z" fill="#3F3D56"></path><path d="M107.623 56.784L62.2359 56.656C61.0193 56.6546 59.8518 57.1356 58.9892 57.9936C58.1267 58.8516 57.6395 60.0165 57.6345 61.2331L57.4699 121.333C57.4673 122.548 57.9473 123.715 58.8044 124.576C59.6615 125.438 60.8256 125.924 62.0409 125.928L87.218 126.001L107.434 126.056C108.65 126.058 109.818 125.577 110.679 124.719C111.541 123.861 112.027 122.695 112.029 121.479L112.042 117.926L112.2 61.3855C112.203 60.1686 111.722 59.0005 110.864 58.1377C110.005 57.2749 108.84 56.788 107.623 56.784Z" fill="#E6E6E6"></path><path d="M104.423 60.3738L65.4174 60.2641C64.2784 60.2627 63.1853 60.7128 62.3776 61.516C61.5699 62.3191 61.1135 63.4096 61.1085 64.5487L60.9988 103.189C60.9911 108.263 62.9965 113.134 66.575 116.732C70.1534 120.329 75.0129 122.361 80.0873 122.381L87.4984 122.399L104.253 122.448C105.392 122.451 106.486 122.001 107.294 121.197C108.102 120.394 108.558 119.303 108.562 118.164L108.574 114.275L108.708 64.6827C108.71 63.5434 108.261 62.4497 107.457 61.6417C106.654 60.8338 105.563 60.3778 104.423 60.3738Z" fill="white"></path><path d="M100.041 86.7759H69.6288C69.3891 86.7759 69.1517 86.8232 68.9303 86.9149C68.7088 87.0066 68.5076 87.1411 68.3381 87.3106C68.1686 87.4801 68.0341 87.6813 67.9424 87.9028C67.8507 88.1242 67.8035 88.3616 67.8035 88.6013C67.8035 88.841 67.8507 89.0784 67.9424 89.2998C68.0341 89.5213 68.1686 89.7225 68.3381 89.892C68.5076 90.0615 68.7088 90.196 68.9303 90.2877C69.1517 90.3794 69.3891 90.4266 69.6288 90.4266H100.041C100.525 90.4266 100.99 90.2343 101.332 89.892C101.674 89.5497 101.867 89.0854 101.867 88.6013C101.867 88.1172 101.674 87.6529 101.332 87.3106C100.99 86.9683 100.525 86.7759 100.041 86.7759Z" fill="#FF6755"></path><path d="M76.3147 76.7685H69.6288C69.1447 76.7685 68.6804 76.9608 68.3381 77.3032C67.9958 77.6455 67.8035 78.1098 67.8035 78.5939C67.8035 79.078 67.9958 79.5423 68.3381 79.8846C68.6804 80.2269 69.1447 80.4192 69.6288 80.4192H76.3147C76.7988 80.4192 77.2631 80.2269 77.6054 79.8846C77.9477 79.5423 78.14 79.078 78.14 78.5939C78.14 78.1098 77.9477 77.6455 77.6054 77.3032C77.2631 76.9608 76.7988 76.7685 76.3147 76.7685Z" fill="#FF6755"></path><path d="M100.041 102.823H69.6288C69.1447 102.823 68.6804 103.016 68.3381 103.358C67.9958 103.7 67.8035 104.164 67.8035 104.649C67.8035 105.133 67.9958 105.597 68.3381 105.939C68.6804 106.282 69.1447 106.474 69.6288 106.474H100.041C100.525 106.474 100.99 106.282 101.332 105.939C101.674 105.597 101.867 105.133 101.867 104.649C101.867 104.164 101.674 103.7 101.332 103.358C100.99 103.016 100.525 102.823 100.041 102.823Z" fill="#FF6755"></path><path d="M100.041 94.8026H69.6288C69.1455 94.8026 68.682 94.9946 68.3402 95.3364C67.9985 95.6781 67.8065 96.1416 67.8065 96.6249C67.8065 97.1082 67.9985 97.5717 68.3402 97.9135C68.682 98.2552 69.1455 98.4472 69.6288 98.4472H100.041C100.525 98.4472 100.988 98.2552 101.33 97.9135C101.672 97.5717 101.864 97.1082 101.864 96.6249C101.864 96.1416 101.672 95.6781 101.33 95.3364C100.988 94.9946 100.525 94.8026 100.041 94.8026Z" fill="#FF6755"></path><path d="M94.1316 83.223C91.9961 83.223 89.9085 82.5898 88.1328 81.4033C86.3572 80.2168 84.9732 78.5305 84.156 76.5575C83.3387 74.5845 83.1249 72.4135 83.5415 70.3189C83.9581 68.2244 84.9865 66.3005 86.4966 64.7904C88.0067 63.2803 89.9306 62.252 92.0251 61.8353C94.1196 61.4187 96.2907 61.6325 98.2637 62.4498C100.237 63.267 101.923 64.651 103.109 66.4266C104.296 68.2023 104.929 70.2899 104.929 72.4254C104.926 75.2881 103.787 78.0327 101.763 80.0569C99.7388 82.0811 96.9943 83.2198 94.1316 83.223ZM94.1316 62.3782C92.1445 62.3782 90.2019 62.9675 88.5497 64.0715C86.8974 65.1755 85.6096 66.7446 84.8492 68.5805C84.0887 70.4164 83.8898 72.4366 84.2774 74.3855C84.6651 76.3345 85.622 78.1248 87.0271 79.5299C88.4322 80.935 90.2225 81.8919 92.1714 82.2796C94.1204 82.6673 96.1406 82.4683 97.9765 81.7079C99.8124 80.9474 101.382 79.6596 102.486 78.0074C103.59 76.3551 104.179 74.4126 104.179 72.4255C104.176 69.7617 103.116 67.2079 101.233 65.3244C99.3492 63.4408 96.7954 62.3813 94.1316 62.3782Z" fill="#FF6755"></path><path d="M98.6663 76.6077C97.9205 72.7572 96.3671 69.1084 94.1086 65.9018C94.0576 65.8186 93.9862 65.75 93.9011 65.7023C93.8161 65.6547 93.7202 65.6297 93.6227 65.6297C93.5252 65.6297 93.4293 65.6547 93.3442 65.7023C93.2591 65.75 93.1877 65.8186 93.1367 65.9018C91.1697 69.3422 89.9124 73.1421 89.4392 77.0768C89.3517 77.7941 90.478 77.7878 90.5647 77.0768C90.7229 75.8016 90.9694 74.539 91.3026 73.2981C91.3457 73.2896 91.3878 73.2767 91.4283 73.2596C92.9249 72.5082 94.6157 72.2328 96.2734 72.4706C96.2879 72.4727 96.3018 72.4696 96.3162 72.471C96.8636 73.9108 97.2867 75.3949 97.581 76.907C97.7183 77.6174 98.8033 77.3166 98.6663 76.6077ZM91.7077 71.9178C92.2243 70.3151 92.882 68.7613 93.6731 67.2748C94.5103 68.554 95.2374 69.9021 95.8463 71.3045C94.4383 71.1986 93.0245 71.4081 91.7077 71.9178Z" fill="#FF6755"></path></g><defs><clipPath id="clip0_68_1741"><rect width="412" height="412" fill="white"></rect></clipPath></defs></svg>